<svg width="28" height="28" viewBox="0 0 28 28" fill="none" xmlns="http://www.w3.org/2000/svg">
<path d="M8.75016 19.25H15.8085C15.5635 19.7983 15.3768 20.3817 15.2718 21H8.75016C5.2035 21 2.3335 18.13 2.3335 14.5833C2.3335 11.0367 5.2035 8.16666 8.75016 8.16666H21.0002C23.5785 8.16666 25.6668 10.255 25.6668 12.8333C25.6668 13.895 25.3052 14.8633 24.6985 15.645C24.0685 15.4 23.3918 15.2483 22.6918 15.2017C23.4268 14.6767 23.9168 13.8133 23.9168 12.8333C23.9168 11.2233 22.6102 9.91666 21.0002 9.91666H8.75016C6.17183 9.91666 4.0835 12.005 4.0835 14.5833C4.0835 17.1617 6.17183 19.25 8.75016 19.25ZM11.0835 15.75C10.4418 15.75 9.91683 15.225 9.91683 14.5833C9.91683 13.9417 10.4418 13.4167 11.0835 13.4167H19.8335V11.6667H11.0835C9.4735 11.6667 8.16683 12.9733 8.16683 14.5833C8.16683 16.1933 9.4735 17.5 11.0835 17.5H16.9635C17.6285 16.7533 18.4452 16.1583 19.3785 15.75H11.0835ZM23.3335 21V17.5H21.0002V21H17.5002V23.3333H21.0002V26.8333H23.3335V23.3333H26.8335V21H23.3335Z" fill="#251F7E"/>
</svg>
