<svg width="18" height="18" viewBox="0 0 18 18" fill="none" xmlns="http://www.w3.org/2000/svg">
<path d="M2.25 5.25C2.25 4.83579 2.58579 4.5 3 4.5H15C15.4142 4.5 15.75 4.83579 15.75 5.25C15.75 5.66421 15.4142 6 15 6H3C2.58579 6 2.25 5.66421 2.25 5.25ZM2.25 9C2.25 8.58579 2.58579 8.25 3 8.25H15C15.4142 8.25 15.75 8.58579 15.75 9C15.75 9.41421 15.4142 9.75 15 9.75H3C2.58579 9.75 2.25 9.41421 2.25 9ZM2.25 12.75C2.25 12.3358 2.58579 12 3 12H15C15.4142 12 15.75 12.3358 15.75 12.75C15.75 13.1642 15.4142 13.5 15 13.5H3C2.58579 13.5 2.25 13.1642 2.25 12.75Z" fill="#ffffff"/>
</svg>
