<svg width="28" height="30" viewBox="0 0 28 30" fill="none" xmlns="http://www.w3.org/2000/svg">
<path d="M9.5 13.5V16.5H6.5V13.5H9.5ZM15.5 13.5V16.5H12.5V13.5H15.5ZM21.5 13.5V16.5H18.5V13.5H21.5ZM24.5 3C25.2956 3 26.0587 3.31607 26.6213 3.87868C27.1839 4.44129 27.5 5.20435 27.5 6V27C27.5 27.7956 27.1839 28.5587 26.6213 29.1213C26.0587 29.6839 25.2956 30 24.5 30H3.5C1.835 30 0.5 28.65 0.5 27V6C0.5 5.20435 0.81607 4.44129 1.37868 3.87868C1.94129 3.31607 2.70435 3 3.5 3H5V0H8V3H20V0H23V3H24.5ZM24.5 27V10.5H3.5V27H24.5ZM9.5 19.5V22.5H6.5V19.5H9.5ZM15.5 19.5V22.5H12.5V19.5H15.5ZM21.5 19.5V22.5H18.5V19.5H21.5Z" fill="#251F7E"/>
</svg>
