<svg width="15" height="14" viewBox="0 0 15 14" fill="none" xmlns="http://www.w3.org/2000/svg">
<path d="M14.0919 0.636039C14.594 1.13814 14.594 1.95221 14.0919 2.45431L9.5462 7L14.0919 11.5457C14.594 12.0478 14.594 12.8619 14.0919 13.364C13.5898 13.8661 12.7757 13.8661 12.2736 13.364L7.72792 8.81827L3.18224 13.364C2.68013 13.8661 1.86606 13.8661 1.36396 13.364C0.861858 12.8619 0.861858 12.0478 1.36396 11.5457L5.90965 7L1.36396 2.45431C0.861859 1.95221 0.861858 1.13814 1.36396 0.636039C1.86606 0.133937 2.68013 0.133937 3.18224 0.636039L7.72792 5.18173L12.2736 0.63604C12.7757 0.133938 13.5898 0.133937 14.0919 0.636039Z" fill="#251F7E"/>
</svg>
