<svg width="16" height="16" viewBox="0 0 16 16" fill="none" xmlns="http://www.w3.org/2000/svg">
<path d="M12.6666 14H5.33331V4.66669H12.6666M12.6666 3.33335H5.33331C4.97969 3.33335 4.64055 3.47383 4.3905 3.72388C4.14046 3.97393 3.99998 4.31307 3.99998 4.66669V14C3.99998 14.3536 4.14046 14.6928 4.3905 14.9428C4.64055 15.1929 4.97969 15.3334 5.33331 15.3334H12.6666C13.0203 15.3334 13.3594 15.1929 13.6095 14.9428C13.8595 14.6928 14 14.3536 14 14V4.66669C14 4.31307 13.8595 3.97393 13.6095 3.72388C13.3594 3.47383 13.0203 3.33335 12.6666 3.33335ZM10.6666 0.666687H2.66665C2.31302 0.666687 1.97389 0.807163 1.72384 1.05721C1.47379 1.30726 1.33331 1.6464 1.33331 2.00002V11.3334H2.66665V2.00002H10.6666V0.666687Z" fill="#251F7E"/>
</svg>
