<svg width="20" height="30" viewBox="0 0 20 30" fill="none" xmlns="http://www.w3.org/2000/svg">
<path d="M17.1779 14.6565C16.4486 14.0976 15.5822 13.6131 14.5784 13.203C13.5742 12.7932 12.4781 12.402 11.2891 12.0288C10.672 11.8371 10.1307 11.6589 9.66564 11.4936C9.20021 11.3286 8.81029 11.1528 8.49622 10.9665C8.18182 10.7802 7.94642 10.578 7.7897 10.3596C7.63234 10.1412 7.55398 9.8832 7.55398 9.585C7.55398 9.2868 7.62697 9.0336 7.77295 8.8263C7.91862 8.6187 8.11484 8.4507 8.36161 8.3232C8.60807 8.1954 8.89434 8.1021 9.21948 8.0436C9.54493 7.9851 9.89282 7.9557 10.2625 7.9557C10.6322 7.9557 10.9747 8.0064 11.3226 8.1075C11.6702 8.2089 12.001 8.3367 12.3154 8.4909C12.6295 8.6454 12.9236 8.8182 13.1985 9.0099C13.4731 9.2016 13.7227 9.3882 13.9474 9.5691L14.0991 9.6969C14.2558 9.8247 14.3986 9.9312 14.5275 10.0164C14.6568 10.1016 14.7999 10.1442 14.9569 10.1442C15.1475 10.1442 15.3383 10.0539 15.5292 9.8724L18.1034 7.2687C18.2491 7.1199 18.3584 6.9867 18.4314 6.8694C18.5041 6.7521 18.5407 6.6246 18.5407 6.486C18.5407 6.3474 18.4649 6.1824 18.3135 5.9907C18.1618 5.799 17.9574 5.5971 17.6996 5.3838C17.4414 5.1708 17.1413 4.95 16.7994 4.7208C16.4575 4.4919 16.0954 4.2708 15.7143 4.0578C15.1197 3.7491 14.5225 3.4962 13.9224 3.2991C13.3224 3.1023 12.7085 2.9505 12.08 2.844V0.7029C12.08 0.4899 11.9877 0.3195 11.8022 0.1917C11.6174 0.0639 11.4408 0 11.2727 0H8.10946C7.86269 0 7.67753 0.0693 7.5543 0.2076C7.43075 0.3462 7.36945 0.5112 7.36945 0.7029V2.9232C6.39341 3.1044 5.51564 3.384 4.73613 3.762C3.95631 4.14 3.2975 4.6008 2.7594 5.1438C2.22098 5.6868 1.80547 6.3045 1.51415 6.9969C1.22219 7.6893 1.07652 8.4453 1.07652 9.2652C1.07652 10.2024 1.24494 11.0517 1.58145 11.8131C1.91764 12.5748 2.42257 13.2723 3.09591 13.9059C3.76862 14.5395 4.61006 15.1146 5.61959 15.6306C6.62913 16.1478 7.80708 16.6293 9.15313 17.0763C9.45583 17.1723 9.81477 17.292 10.2296 17.4363C10.6448 17.58 11.043 17.7528 11.4243 17.955C11.8051 18.1575 12.128 18.3888 12.3915 18.6498C12.6551 18.9111 12.7871 19.2063 12.7871 19.5369C12.7871 19.8348 12.7391 20.1177 12.6443 20.3832C12.5486 20.6499 12.389 20.8842 12.1647 21.0861C11.94 21.2886 11.6345 21.4509 11.248 21.5736C10.8606 21.696 10.3813 21.7575 9.80909 21.7575C9.19199 21.7575 8.60333 21.6558 8.04248 21.4536C7.48163 21.2517 6.9154 20.9697 6.34317 20.6073C5.96148 20.3622 5.62212 20.1144 5.3251 19.8645C5.02809 19.6143 4.78384 19.4151 4.59331 19.2651C4.43596 19.1379 4.30167 19.0419 4.18918 18.9777C4.07701 18.9138 3.97053 18.882 3.86973 18.882C3.72375 18.882 3.53322 18.9615 3.2975 19.1217L0.387068 21.7578C0.128917 21.9807 0 22.1832 0 22.3644C0 22.5243 0.128601 22.7376 0.387068 23.0031C0.398127 23.0139 0.409186 23.022 0.420561 23.0271C0.43162 23.0325 0.442679 23.0457 0.45437 23.067C0.465113 23.0778 0.476488 23.0859 0.487863 23.0907C0.498922 23.0964 0.509982 23.1096 0.521357 23.1306L0.571912 23.1783C0.751069 23.3592 0.995001 23.5995 1.30371 23.8974C1.6121 24.1956 1.99095 24.4989 2.43932 24.8082C3.17996 25.3188 3.96452 25.761 4.7949 26.1342C5.62496 26.5065 6.48283 26.7837 7.36945 26.9649V29.2968C7.36945 29.7648 7.6156 29.9997 8.10946 29.9997H11.2727C11.8114 29.9997 12.08 29.7651 12.08 29.2968V27.0123C13.1568 26.8314 14.1468 26.5254 15.0498 26.094C15.9526 25.6626 16.7352 25.1223 17.3969 24.4722C18.0585 23.8224 18.5745 23.0802 18.9445 22.2441C19.3148 21.4077 19.5 20.4894 19.5 19.4883C19.5 18.3813 19.2952 17.4384 18.8861 16.6608C18.4762 15.8835 17.9072 15.2154 17.1782 14.6562L17.1779 14.6565Z" fill="#251F7E"/>
</svg>
