<svg width="30" height="30" viewBox="0 0 30 30" fill="none" xmlns="http://www.w3.org/2000/svg">
<path d="M30 21C30 21.7956 29.6839 22.5587 29.1213 23.1213C28.5587 23.6839 27.7956 24 27 24H9C7.335 24 6 22.65 6 21V3C6 1.335 7.335 0 9 0H27C27.7956 0 28.5587 0.31607 29.1213 0.87868C29.6839 1.44129 30 2.20435 30 3V21ZM21 27V30H3C2.20435 30 1.44129 29.6839 0.87868 29.1213C0.31607 28.5587 0 27.7956 0 27V7.5H3V27H21ZM16.5 18L27 7.5L24.885 5.385L16.5 13.755L11.865 9.135L9.75 11.25L16.5 18Z" fill="#251F7E"/>
</svg>
