<svg width="30" height="30" viewBox="0 0 30 30" fill="none" xmlns="http://www.w3.org/2000/svg">
<path d="M30 24V30H24V25.5H19.5V21H15L11.61 17.61C10.785 17.865 9.915 18 9 18C6.61305 18 4.32387 17.0518 2.63604 15.364C0.948211 13.6761 0 11.3869 0 9C0 6.61305 0.948211 4.32387 2.63604 2.63604C4.32387 0.948211 6.61305 0 9 0C11.3869 0 13.6761 0.948211 15.364 2.63604C17.0518 4.32387 18 6.61305 18 9C18 9.915 17.865 10.785 17.61 11.61L30 24ZM7.5 4.5C6.70435 4.5 5.94129 4.81607 5.37868 5.37868C4.81607 5.94129 4.5 6.70435 4.5 7.5C4.5 8.29565 4.81607 9.05871 5.37868 9.62132C5.94129 10.1839 6.70435 10.5 7.5 10.5C8.29565 10.5 9.05871 10.1839 9.62132 9.62132C10.1839 9.05871 10.5 8.29565 10.5 7.5C10.5 6.70435 10.1839 5.94129 9.62132 5.37868C9.05871 4.81607 8.29565 4.5 7.5 4.5Z" fill="#251F7E"/>
</svg>
