<svg width="28" height="28" viewBox="0 0 28 28" fill="none" xmlns="http://www.w3.org/2000/svg">
<path d="M4.55016 14C4.55016 12.005 6.17183 10.3833 8.16683 10.3833H12.8335V8.16666H8.16683C6.61973 8.16666 5.136 8.78124 4.04204 9.8752C2.94808 10.9692 2.3335 12.4529 2.3335 14C2.3335 15.5471 2.94808 17.0308 4.04204 18.1248C5.136 19.2187 6.61973 19.8333 8.16683 19.8333H12.8335V17.6167H8.16683C6.17183 17.6167 4.55016 15.995 4.55016 14ZM9.3335 15.1667H18.6668V12.8333H9.3335V15.1667ZM19.8335 8.16666H15.1668V10.3833H19.8335C21.8285 10.3833 23.4502 12.005 23.4502 14C23.4502 15.995 21.8285 17.6167 19.8335 17.6167H15.1668V19.8333H19.8335C21.3806 19.8333 22.8643 19.2187 23.9583 18.1248C25.0522 17.0308 25.6668 15.5471 25.6668 14C25.6668 12.4529 25.0522 10.9692 23.9583 9.8752C22.8643 8.78124 21.3806 8.16666 19.8335 8.16666Z" fill="#251F7E"/>
</svg>
