<svg width="40" height="41" viewBox="0 0 40 41" fill="none" xmlns="http://www.w3.org/2000/svg">
<path d="M20 34.9C15 34.9 10.58 32.34 8 28.5C8.06 24.5 16 22.3 20 22.3C24 22.3 31.94 24.5 32 28.5C29.42 32.34 25 34.9 20 34.9ZM20 6.5C21.5913 6.5 23.1174 7.13214 24.2426 8.25736C25.3679 9.38258 26 10.9087 26 12.5C26 14.0913 25.3679 15.6174 24.2426 16.7426C23.1174 17.8679 21.5913 18.5 20 18.5C18.4087 18.5 16.8826 17.8679 15.7574 16.7426C14.6321 15.6174 14 14.0913 14 12.5C14 10.9087 14.6321 9.38258 15.7574 8.25736C16.8826 7.13214 18.4087 6.5 20 6.5ZM20 0.5C17.3736 0.5 14.7728 1.01732 12.3463 2.02241C9.91982 3.0275 7.71504 4.50069 5.85786 6.35786C2.10714 10.1086 0 15.1957 0 20.5C0 25.8043 2.10714 30.8914 5.85786 34.6421C7.71504 36.4993 9.91982 37.9725 12.3463 38.9776C14.7728 39.9827 17.3736 40.5 20 40.5C25.3043 40.5 30.3914 38.3929 34.1421 34.6421C37.8929 30.8914 40 25.8043 40 20.5C40 9.44 31 0.5 20 0.5Z" fill="#251F7E"/>
</svg>
