<?xml version="1.0" encoding="UTF-8"?>
<svg xmlns="http://www.w3.org/2000/svg" xmlns:xlink="http://www.w3.org/1999/xlink" width="60px" height="px" viewBox="0 0 60 60" version="1.1">
<g id="surface1">
<path style=" stroke:none;fill-rule:nonzero;fill:rgb(70.980392%,94.509804%,95.686275%);fill-opacity:1;" d="M 60 30 C 60 46.570312 46.570312 60 30 60 C 13.429688 60 0 46.570312 0 30 C 0 13.429688 13.429688 0 30 0 C 46.570312 0 60 13.429688 60 30 Z M 60 30 "/>
<path style=" stroke:none;fill-rule:nonzero;fill:rgb(51.764706%,85.882353%,100%);fill-opacity:1;" d="M 59.6875 34.332031 L 53.332031 27.980469 L 24.527344 30.253906 L 18.414062 24.140625 L 12.746094 26.71875 L 15.554688 38.714844 L 36.199219 59.359375 C 48.40625 56.792969 57.882812 46.804688 59.6875 34.332031 Z M 59.6875 34.332031 "/>
<path style=" stroke:none;fill-rule:nonzero;fill:rgb(19.607843%,29.019608%,36.862745%);fill-opacity:1;" d="M 53.332031 27.980469 L 14.574219 27.980469 L 18.414062 24.140625 L 15.554688 21.285156 L 6.839844 30 L 15.554688 38.714844 L 18.414062 35.859375 L 14.574219 32.019531 L 53.332031 32.019531 Z M 53.332031 27.980469 "/>
<path style=" stroke:none;fill-rule:nonzero;fill:rgb(16.862745%,23.137255%,30.588235%);fill-opacity:1;" d="M 53.332031 30 L 6.839844 30 L 15.554688 38.714844 L 18.414062 35.859375 L 14.574219 32.019531 L 53.332031 32.019531 Z M 53.332031 30 "/>
</g>
</svg>
