<?xml version="1.0" encoding="UTF-8"?>
<svg xmlns="http://www.w3.org/2000/svg" xmlns:xlink="http://www.w3.org/1999/xlink" width="60px" height="px" viewBox="0 0 60 60" version="1.1">
<g id="surface1">
<path style=" stroke:none;fill-rule:nonzero;fill:rgb(70.980392%,94.509804%,95.686275%);fill-opacity:1;" d="M 60 30 C 60 46.570312 46.570312 60 30 60 C 13.429688 60 0 46.570312 0 30 C 0 13.429688 13.429688 0 30 0 C 46.570312 0 60 13.429688 60 30 Z M 60 30 "/>
<path style=" stroke:none;fill-rule:nonzero;fill:rgb(51.764706%,85.882353%,100%);fill-opacity:1;" d="M 46.265625 30 L 34.714844 29.796875 L 12.980469 32.324219 L 39.214844 58.554688 C 47.605469 55.851562 54.382812 49.546875 57.730469 41.464844 Z M 46.265625 30 "/>
<path style=" stroke:none;fill-rule:nonzero;fill:rgb(19.607843%,29.019608%,36.862745%);fill-opacity:1;" d="M 35.195312 18.929688 L 31.910156 22.214844 L 37.371094 27.675781 L 12.980469 27.675781 L 12.980469 32.324219 L 37.371094 32.324219 L 31.910156 37.785156 L 35.195312 41.070312 L 46.265625 30 Z M 35.195312 18.929688 "/>
<path style=" stroke:none;fill-rule:nonzero;fill:rgb(16.862745%,23.137255%,30.588235%);fill-opacity:1;" d="M 12.980469 32.324219 L 37.371094 32.324219 L 31.910156 37.785156 L 35.195312 41.070312 L 46.265625 30 L 12.980469 30 Z M 12.980469 32.324219 "/>
</g>
</svg>
